<?xml version="1.0" encoding="UTF-8" standalone="no"?>
<!DOCTYPE svg PUBLIC "-//W3C//DTD SVG 1.1//EN" "http://www.w3.org/Graphics/SVG/1.1/DTD/svg11.dtd">
<svg width="100%" height="100%" viewBox="0 0 1857 560" version="1.1" xmlns="http://www.w3.org/2000/svg" xmlns:xlink="http://www.w3.org/1999/xlink" xml:space="preserve" xmlns:serif="http://www.serif.com/" style="fill-rule:evenodd;clip-rule:evenodd;stroke-linejoin:round;stroke-miterlimit:2;">
    <g transform="matrix(1,0,0,1,1310.125,218.8125)">
        <path d="M-56.848,20.465C-47.288,12.269 -36.076,6.103 -23.598,2.098C-15.737,0.037 -8.077,0.004 0,0L3.477,-0.037C28.061,-0.079 48.735,8.64 66.473,25.684C84.486,44.42 92.484,69.418 92.161,95.138C91.507,116.828 84.206,137.102 70.875,154.188L69.457,156.066C56.217,172.644 33.939,182.472 13.301,184.956C-6.272,186.823 -23.676,184.47 -41.125,175.188L-44.242,173.562C-64.353,162.509 -78.107,142.944 -84.604,121.164C-91.597,95.837 -89.154,68.581 -77.125,45.188C-74.071,39.809 -70.585,34.851 -66.707,30.327L-64.125,31.188L-55.125,22.188L-56.848,20.465ZM-66.707,30.327L-67.125,30.188L-57.125,20.188L-56.848,20.465C-60.364,23.48 -63.657,26.769 -66.707,30.327ZM0.125,31C-4.75,31.003 -9.414,30.799 -14.125,32.188C-27.948,37.456 -40.322,47.153 -46.996,60.641L-48.125,63.188C-54.021,75.665 -53.693,87.764 -53.318,101.358C-52.326,115.909 -46.06,130.453 -35.266,140.383L-33.125,142.188C-28.966,145.713 -24.764,148.42 -19.82,150.734C-6.186,155.954 8.488,156.038 22.184,150.961C36.532,144.548 46.913,134.228 52.77,119.535L53.875,116.188C56.223,109.169 57.241,102.777 57.236,95.369L57.188,92C57.237,74.761 52.665,59.189 40.5,46.375C30.003,36.581 17.275,30.932 2.902,30.963L0.125,31Z" style="fill:rgb(216,146,2);"/>
    </g>
    <g transform="matrix(1,0,0,1,304,221)">
        <path d="M0,0L41,0C45.503,11.259 45.503,11.259 46.781,15.113C47.066,15.97 47.351,16.826 47.645,17.709C47.927,18.568 48.209,19.427 48.5,20.312C48.923,21.584 48.923,21.584 49.355,22.881C50.914,27.588 52.406,32.31 53.848,37.055C56.626,46.137 59.688,55.125 62.716,64.126C65.617,72.761 68.464,81.405 71.157,90.107C73.433,97.441 75.87,104.72 78.312,112C78.772,113.372 79.231,114.745 79.689,116.117C80.791,119.412 81.895,122.706 83,126C85.251,122.623 86.241,119.281 87.375,115.438C89.01,110.037 90.806,104.815 92.986,99.607C94.036,96.907 94.887,94.203 95.714,91.427C98.477,82.346 101.506,73.357 104.516,64.355C105.138,62.491 105.76,60.626 106.382,58.761C108.005,53.896 109.629,49.032 111.254,44.168C113.212,38.309 115.166,32.449 117.122,26.589C120.079,17.725 123.04,8.863 126,0L165,0C169.492,11.231 169.492,11.231 170.781,15.438C171.066,16.353 171.351,17.268 171.645,18.211C172.215,20.07 172.785,21.93 173.355,23.789C174.701,28.113 176.101,32.35 177.844,36.531C181.375,45.145 183.971,54.122 186.791,62.987C190.541,74.799 190.541,74.799 194.963,86.371C197.191,92.02 199.037,97.816 200.947,103.579C201.692,105.827 202.444,108.073 203.197,110.318C203.677,111.76 204.157,113.202 204.637,114.645C204.86,115.309 205.083,115.974 205.312,116.659C206.442,120.082 207.386,123.446 208,127L210,127C210.12,125.989 210.239,124.979 210.362,123.938C210.986,120.086 211.952,116.688 213.204,112.997C213.429,112.329 213.653,111.661 213.885,110.973C214.631,108.756 215.386,106.542 216.141,104.328C216.677,102.738 217.213,101.148 217.749,99.558C218.896,96.152 220.046,92.746 221.198,89.342C223.949,81.2 226.658,73.044 229.371,64.89C230.915,60.252 232.462,55.614 234.008,50.977C234.628,49.116 235.248,47.256 235.868,45.396C240.912,30.264 245.956,15.132 251,0L291,0C289.086,6.379 287.135,12.699 285,19C283.133,24.547 281.347,30.099 279.711,35.719C278.897,38.329 277.957,40.876 277,43.438C275.339,47.905 274.032,52.374 272.906,57.004C272.153,59.495 271.287,61.769 270.288,64.165C267.356,71.449 264.954,78.911 262.492,86.363C261.962,87.961 261.431,89.559 260.9,91.157C259.504,95.358 258.111,99.561 256.719,103.763C254.252,111.215 251.779,118.664 249.305,126.113C249.038,126.918 248.771,127.722 248.495,128.551C243.751,142.828 238.89,157.063 233.941,171.271C232.94,174.174 231.971,177.087 231,180L188,180C184.918,172.602 181.965,165.355 179.391,157.797C179.066,156.856 178.742,155.914 178.408,154.945C177.712,152.927 177.019,150.909 176.327,148.891C174.469,143.472 172.597,138.058 170.727,132.645C170.341,131.528 169.956,130.412 169.558,129.262C165.306,116.966 160.973,104.7 156.625,92.438C156.261,91.409 155.897,90.381 155.522,89.322C154.487,86.4 153.451,83.479 152.414,80.559C152.112,79.705 151.809,78.852 151.498,77.973C151.069,76.767 151.069,76.767 150.631,75.537C150.361,74.774 150.09,74.012 149.811,73.226C149.007,71.019 148.148,68.838 147.287,66.653C146,63 146,63 146,59L144,59C143.777,60.16 143.554,61.32 143.324,62.516C141.708,69.758 139.193,76.732 136.812,83.75C136.283,85.322 135.754,86.895 135.225,88.468C134.381,90.978 133.536,93.489 132.69,95.999C130.526,102.421 128.387,108.851 126.258,115.285C119.083,136.951 111.724,158.522 104,180L61,180C55.267,166.24 55.267,166.24 53.033,159.288C52.523,157.73 52.012,156.171 51.502,154.613C51.126,153.456 51.126,153.456 50.742,152.275C49.6,148.772 48.432,145.277 47.266,141.782C46.809,140.41 46.353,139.038 45.896,137.666C39.366,118.049 32.777,98.451 26.163,78.862C24.722,74.592 23.281,70.322 21.842,66.052C20.415,61.821 18.987,57.59 17.559,53.359C17.282,52.541 17.006,51.722 16.721,50.879C13.745,42.064 10.752,33.256 7.711,24.463C7.451,23.709 7.191,22.955 6.922,22.178C5.695,18.627 4.464,15.078 3.227,11.53C2.8,10.299 2.374,9.067 1.934,7.798C1.371,6.182 1.371,6.182 0.797,4.534C0,2 0,2 0,0Z" style="fill:rgb(216,146,2);fill-rule:nonzero;"/>
    </g>
    <g transform="matrix(1,0,0,1,997,163)">
        <path d="M0,0L44,0L44,95L89,95C88.016,86.997 88.016,86.997 87.025,78.995C86.843,77.491 86.843,77.491 86.656,75.957C86.531,74.936 86.405,73.915 86.275,72.863C86.021,70.219 85.949,67.654 86,65C91.237,67.881 96.087,71.075 100.938,74.562C102.45,75.64 103.963,76.717 105.477,77.793C106.235,78.332 106.993,78.872 107.774,79.427C111.098,81.776 114.453,84.078 117.812,86.375C126.464,92.301 135.056,98.308 143.632,104.343C145.873,105.911 148.126,107.462 150.383,109.008C151.672,109.901 152.961,110.794 154.25,111.688C154.841,112.085 155.431,112.483 156.04,112.893C157.641,114.012 157.641,114.012 160,116L160,119C158.693,120.268 158.693,120.268 156.844,121.531C156.16,122.006 155.476,122.481 154.771,122.97C154.022,123.475 153.272,123.98 152.5,124.5C151.726,125.033 150.952,125.567 150.155,126.116C147.776,127.753 145.388,129.377 143,131C141.705,131.889 140.411,132.78 139.117,133.672C136.557,135.436 133.995,137.196 131.43,138.953C126.102,142.61 120.802,146.307 115.5,150C113.538,151.365 111.576,152.729 109.613,154.094C106.086,156.547 102.563,159.005 99.043,161.469C97.591,162.479 96.139,163.49 94.688,164.5C93.701,165.194 93.701,165.194 92.695,165.902C88.227,169 88.227,169 86,169C86.307,164.916 86.622,160.833 86.938,156.75C87.025,155.591 87.112,154.432 87.201,153.238C87.288,152.123 87.375,151.008 87.465,149.859C87.543,148.833 87.622,147.807 87.703,146.749C88,144 88,144 89,140L-72,140C-73.32,135.05 -74.64,130.1 -76,125C-81.25,112.249 -89.708,103.474 -102.363,97.973C-113.748,93.929 -126.086,95.14 -137,100C-148.471,106.457 -155.857,116.572 -160,129C-160.66,132.63 -161.32,136.26 -162,140L-206,140L-206,59L-165,59C-164.67,65.6 -164.34,72.2 -164,79C-162.68,77.35 -161.36,75.7 -160,74C-145.379,61.165 -128.907,55.426 -109.562,55.625C-107.875,55.608 -107.875,55.608 -106.154,55.59C-95.22,55.628 -84.849,57.65 -74.875,62.188C-74.203,62.49 -73.53,62.793 -72.837,63.104C-58.257,69.91 -47.821,80.769 -39,94C-19.695,94.495 -19.695,94.495 0,95L0,0Z" style="fill:rgb(216,146,2);fill-rule:nonzero;"/>
    </g>
    <g transform="matrix(1,0,0,1,290,180)">
        <path d="M0,0C0.99,0.99 0.99,0.99 2,2C1.593,6.315 -0.144,10.267 -1.723,14.27C-1.988,14.951 -2.253,15.632 -2.525,16.333C-3.367,18.494 -4.215,20.653 -5.062,22.812C-5.636,24.283 -6.21,25.754 -6.783,27.225C-8.185,30.818 -9.591,34.41 -11,38C-15.663,36.513 -19.751,34.586 -24,32.188C-45.584,20.433 -72.67,15.695 -96.875,21.562C-106.954,24.578 -114.527,28.931 -119.977,38.082C-123.098,43.931 -123.063,51.023 -121.352,57.426C-117.27,66.41 -108.989,70.738 -100.146,74.216C-88.731,78.387 -76.856,81.297 -65.086,84.27C-64.316,84.465 -63.545,84.66 -62.751,84.861C-58.932,85.827 -55.11,86.782 -51.283,87.716C-42.838,89.806 -34.916,92.308 -27,96C-26.346,96.305 -25.692,96.609 -25.018,96.923C-8.542,104.912 3.442,115.885 9.823,133.237C11.877,139.44 12.51,145.111 12.438,151.625C12.431,152.579 12.424,153.533 12.417,154.517C12.006,172.891 5.714,187.946 -7.094,201.16C-31.162,223.79 -63.626,224.956 -94.682,224.175C-122.064,223.241 -152.539,213.831 -173,195C-172.428,190.173 -170.93,186.192 -168.84,181.852C-168.531,181.194 -168.221,180.537 -167.902,179.859C-166.921,177.778 -165.93,175.701 -164.938,173.625C-164.267,172.207 -163.597,170.789 -162.928,169.371C-161.293,165.91 -159.649,162.454 -158,159C-154.583,159.761 -152.607,160.863 -149.812,163C-125.655,180.225 -94.888,189.027 -65.281,184.593C-55.81,182.699 -44.639,179.701 -38.328,171.945C-33.573,164.653 -33.045,157.596 -34,149C-37.189,140.552 -44.262,136.147 -52.163,132.567C-61.021,128.915 -69.82,126.321 -79.146,124.159C-143.679,109.108 -143.679,109.108 -160.02,83.453C-168.937,67.905 -170.553,49.913 -165.9,32.699C-160.203,13.761 -147.182,0.9 -130.328,-8.488C-91.292,-27.592 -36.421,-23.02 0,0Z" style="fill:rgb(216,146,2);fill-rule:nonzero;"/>
    </g>
    <g transform="matrix(1,0,0,1,665.117188,218.761719)">
        <path d="M0,0L2.348,-0.024C3.987,-0.038 5.626,-0.049 7.265,-0.057C8.909,-0.068 10.553,-0.089 12.197,-0.118C32.344,-0.482 50.625,3.723 66.883,16.238L70.008,18.488C85.3,33.116 90.837,53.239 91.305,73.802C91.361,79.838 91.325,85.871 91.273,91.906C91.266,94.525 91.26,97.143 91.256,99.762C91.244,105.895 91.211,112.028 91.171,118.162C91.126,125.158 91.104,132.155 91.084,139.152C91.043,153.514 90.969,167.876 90.883,182.238L50.883,182.238L49.883,162.238L45.633,166.801C31.751,180.643 14.178,185.377 -4.93,185.551C-23.398,185.446 -41.525,180.465 -55.117,167.238C-66.619,154.729 -69.872,141.059 -69.43,124.465C-68.716,111.307 -62.595,100.984 -53.234,92.082C-32.806,74.292 -4.302,74.625 21.258,74.988C23.759,75.008 26.26,75.027 28.762,75.043C34.802,75.086 40.843,75.153 46.883,75.238C46.756,73.181 46.62,71.123 46.48,69.066L46.254,65.595C45.24,56.432 40.896,49.164 33.883,43.238C24.466,37.569 15.308,37.058 4.57,37.051L1.596,37.014C-14.308,36.982 -28.381,41.884 -41.473,50.762L-44.117,52.238C-49.348,50.495 -51.01,44.553 -53.435,39.847C-54.426,37.934 -55.443,36.036 -56.463,34.139C-57.095,32.927 -57.726,31.714 -58.355,30.5L-60.107,27.155C-61.117,24.238 -61.117,24.238 -60.46,21.981C-58.4,19.307 -55.753,17.635 -52.93,15.863L-51.046,14.675C-36.033,5.502 -17.571,0.178 0,0ZM8.039,105.043C-2.192,104.947 -10.518,105.317 -19.062,111.496C-23.583,115.329 -25.776,118.63 -26.555,124.582C-26.836,132.822 -25.965,138.534 -20.75,144.91C-14.92,150.769 -6.641,152.882 1.402,153.516C15.05,153.656 27.187,150.618 37.168,141.047C44.569,133.358 48.072,127.065 48.009,116.356L47.973,113.895C47.95,111.009 47.922,108.124 47.883,105.238C41.852,105.196 35.82,105.163 29.789,105.141L22.383,105.113C18.756,105.088 15.129,105.063 11.502,105.052L8.039,105.043Z" style="fill:rgb(216,146,2);"/>
    </g>
    <g transform="matrix(1,0,0,1,1429,221)">
        <path d="M0,0L35,0C35.015,3.259 35.029,6.518 35.044,9.875C35.095,20.684 35.161,31.493 35.236,42.301C35.28,48.85 35.32,55.398 35.346,61.947C35.373,68.275 35.413,74.603 35.463,80.932C35.48,83.337 35.491,85.743 35.498,88.148C35.554,107.65 35.695,126.922 50,142C52.38,143.453 54.556,144.662 57.062,145.812C57.674,146.111 58.286,146.409 58.916,146.717C65.265,149.757 70.322,150.182 77.25,150.188C78.071,150.2 78.892,150.212 79.738,150.225C93.002,150.256 103.834,145.3 113.621,136.551C124.148,125.696 126.286,109.526 126.319,95.113C126.329,94.087 126.339,93.061 126.349,92.004C126.38,88.655 126.397,85.306 126.414,81.957C126.433,79.619 126.452,77.28 126.473,74.942C126.524,68.818 126.564,62.694 126.601,56.571C126.641,50.309 126.692,44.048 126.742,37.787C126.839,25.525 126.922,13.262 127,1L161,1L161,180L129,180L129,156L127,156C126.814,156.681 126.629,157.361 126.438,158.062C121.012,169.149 108.041,175.025 97,179C96.265,179.324 95.53,179.647 94.773,179.98C77.976,186.155 57.345,184.9 41,178C36.755,175.962 32.875,173.671 29,171C28.129,170.416 27.257,169.832 26.359,169.23C11.186,158.176 4.648,140.888 1.543,123.047C0.288,114.322 -0.146,105.644 -0.114,96.837C-0.114,95.782 -0.114,94.727 -0.114,93.64C-0.113,90.194 -0.106,86.747 -0.098,83.301C-0.096,80.895 -0.094,78.489 -0.093,76.084C-0.09,69.783 -0.08,63.481 -0.069,57.18C-0.058,50.738 -0.054,44.296 -0.049,37.854C-0.038,25.236 -0.021,12.618 0,0Z" style="fill:rgb(216,146,2);fill-rule:nonzero;"/>
    </g>
    <g transform="matrix(1,0,0,1,924,323)">
        <path d="M0,0L46,0C44.832,16.351 44.832,16.351 42.438,23C42.173,23.755 41.908,24.51 41.635,25.288C36.906,38.218 29.725,48.359 20,58C19.294,58.74 18.587,59.48 17.859,60.242C9.393,68.547 -2.641,73.9 -14,77C-14.944,77.347 -15.887,77.694 -16.859,78.051C-22.799,79.738 -29.069,79.328 -35.188,79.312C-37.064,79.337 -37.064,79.337 -38.979,79.361C-50.169,79.367 -60.088,77.514 -70.062,72.375C-70.679,72.082 -71.296,71.79 -71.932,71.488C-78.599,68.131 -82.896,63.994 -89,59C-89.33,86.72 -89.66,114.44 -90,143L-133,143L-133,2L-88,2C-85.525,8.435 -85.525,8.435 -83,15C-76.972,24.969 -69.687,31.861 -58.707,36.117C-47.252,38.845 -33.473,38.731 -23,33C-22.218,32.599 -21.435,32.198 -20.629,31.785C-11.961,26.742 -5.445,17.363 -2,8C-1.34,5.36 -0.68,2.72 0,0Z" style="fill:rgb(216,146,2);fill-rule:nonzero;"/>
    </g>
    <g transform="matrix(1,0,0,1,1154,163)">
        <path d="M0,0L39,0L39,238L0,238C-0.362,223.978 -0.655,209.96 -0.829,195.934C-0.912,189.421 -1.025,182.911 -1.207,176.4C-1.381,170.11 -1.477,163.823 -1.518,157.531C-1.548,155.137 -1.605,152.743 -1.692,150.349C-2.329,132.008 -2.329,132.008 1.647,126.873C5.934,122.931 10.705,120.352 16,118C13.798,115.549 11.981,113.99 9.026,112.479C5.273,110.442 2.336,108.632 0,105C-2.247,97.387 -1.392,88.99 -1.172,81.152C-1.149,78.811 -1.132,76.47 -1.12,74.129C-1.075,67.987 -0.957,61.848 -0.824,55.708C-0.701,49.434 -0.646,43.16 -0.586,36.885C-0.458,24.588 -0.247,12.295 0,0Z" style="fill:rgb(216,146,2);fill-rule:nonzero;"/>
    </g>
    <g transform="matrix(1,0,0,1,1727,219)">
        <path d="M0,0L0,34C-3.011,34.062 -6.022,34.124 -9.125,34.188C-21.576,34.682 -32.557,37.389 -42,46C-42.602,46.5 -43.204,47 -43.824,47.516C-53.736,56.373 -58.068,70.662 -59.235,83.602C-59.623,90.616 -59.607,97.634 -59.609,104.656C-59.624,106.898 -59.641,109.139 -59.659,111.381C-59.703,117.227 -59.723,123.072 -59.738,128.918C-59.758,134.905 -59.8,140.892 -59.84,146.879C-59.915,158.586 -59.963,170.293 -60,182L-94,182L-94,3L-62,3C-61.505,15.375 -61.505,15.375 -61,28C-59.886,26.515 -58.773,25.03 -57.625,23.5C-42.469,4.714 -23.444,0 0,0Z" style="fill:rgb(216,146,2);fill-rule:nonzero;"/>
    </g>
    <g transform="matrix(1,0,0,1,997,323)">
        <rect x="0" y="0" width="44" height="78" style="fill:rgb(216,146,2);fill-rule:nonzero;"/>
    </g>
    <g transform="matrix(1,0,0,1,1666,299)">
        <path d="M0,0L1,0L1,102L-33,102L-33,100L-1,100C-1.008,95.669 -1.008,95.669 -1.016,91.251C-1.032,81.72 -1.043,72.188 -1.052,62.657C-1.057,56.877 -1.064,51.097 -1.075,45.317C-1.086,39.741 -1.092,34.165 -1.095,28.589C-1.097,26.46 -1.1,24.331 -1.106,22.202C-1.113,19.223 -1.114,16.245 -1.114,13.267C-1.117,12.383 -1.121,11.5 -1.124,10.59C-1.123,9.777 -1.122,8.963 -1.12,8.126C-1.121,7.421 -1.122,6.717 -1.123,5.991C-0.993,3.89 -0.572,2.022 0,0Z" style="fill:rgb(216,146,2);fill-rule:nonzero;"/>
    </g>
    <g transform="matrix(1,0,0,1,924,323)">
        <path d="M0,0L46,0C45.67,1.32 45.34,2.64 45,4L45,2C39.073,2.093 33.147,2.2 27.22,2.317C25.204,2.356 23.187,2.391 21.171,2.422C18.274,2.467 15.377,2.525 12.48,2.586C11.577,2.597 10.674,2.609 9.743,2.621C8.482,2.651 8.482,2.651 7.196,2.681C6.087,2.701 6.087,2.701 4.955,2.722C2.679,2.902 2.679,2.902 0,5L0,0Z" style="fill:rgb(216,146,2);fill-rule:nonzero;"/>
    </g>
    <g transform="matrix(1,0,0,1,834,295)">
        <path d="M0,0L1,0L1,8L-43,8C-42.67,7.34 -42.34,6.68 -42,6L-1,6C-0.67,4.02 -0.34,2.04 0,0Z" style="fill:rgb(216,146,2);fill-rule:nonzero;"/>
    </g>
    <g transform="matrix(1,0,0,1,483,266)">
        <path d="M0,0L2,0C3.286,3.807 4.567,7.616 5.845,11.426C6.281,12.722 6.717,14.018 7.155,15.313C7.783,17.174 8.407,19.036 9.031,20.898C9.408,22.019 9.785,23.14 10.174,24.294C11,27 11,27 11,29L9,29C7.492,24.732 5.995,20.46 4.5,16.188C4.071,14.973 3.641,13.758 3.199,12.506C2.793,11.342 2.387,10.179 1.969,8.98C1.403,7.37 1.403,7.37 0.826,5.727C0,3 0,3 0,0Z" style="fill:rgb(216,146,2);fill-rule:nonzero;"/>
    </g>
    <g transform="matrix(1,0,0,1,471,231)">
        <path d="M0,0L2,0C3.038,2.911 4.052,5.829 5.062,8.75C5.357,9.575 5.652,10.4 5.955,11.25C6.229,12.049 6.503,12.848 6.785,13.672C7.17,14.772 7.17,14.772 7.563,15.894C8.057,18.274 7.761,19.716 7,22C5.103,18.455 3.743,14.777 2.375,11C1.929,9.783 1.483,8.566 1.023,7.312C0,4 0,4 0,0Z" style="fill:rgb(216,146,2);fill-rule:nonzero;"/>
    </g>
    <g transform="matrix(1,0,0,1,200,161)">
        <path d="M0,0L0,1C-1.468,1.182 -1.468,1.182 -2.965,1.367C-10.063,2.267 -17.043,3.291 -24,5L-24,3C-21.504,2.294 -19.005,1.61 -16.5,0.938C-15.804,0.738 -15.108,0.539 -14.391,0.334C-9.216,-1.032 -5.271,-0.944 0,0Z" style="fill:rgb(216,146,2);fill-rule:nonzero;"/>
    </g>
    <g transform="matrix(1,0,0,1,358,262)">
        <path d="M0,0C1.749,2.624 2.654,4.557 3.625,7.5C3.885,8.273 4.146,9.047 4.414,9.844C5,12 5,12 5,15L3,15C2.304,12.878 1.618,10.752 0.938,8.625C0.555,7.442 0.172,6.258 -0.223,5.039C-1,2 -1,2 0,0Z" style="fill:rgb(216,146,2);fill-rule:nonzero;"/>
    </g>
    <g transform="matrix(1,0,0,1,299,317)">
        <path d="M0,0L2,0C3.327,3.981 3.069,7.85 3,12C0.609,8.175 0.44,4.403 0,0Z" style="fill:rgb(216,146,2);fill-rule:nonzero;"/>
    </g>
    <g transform="matrix(1,0,0,1,475,243)">
        <path d="M0,0L2,0C2.66,2.97 3.32,5.94 4,9C3.01,9.495 3.01,9.495 2,10C0.684,6.38 0,3.904 0,0Z" style="fill:rgb(216,146,2);fill-rule:nonzero;"/>
    </g>
    <g transform="matrix(1,0,0,1,506,331)">
        <path d="M0,0C2.125,3.188 2.502,5.265 3,9L1,9C-1.125,2.25 -1.125,2.25 0,0Z" style="fill:rgb(216,146,2);fill-rule:nonzero;"/>
    </g>
    <g transform="matrix(1,0,0,1,283,198)">
        <path d="M0,0L3,0C2.34,2.31 1.68,4.62 1,7C0.34,6.67 -0.32,6.34 -1,6C-0.67,4.02 -0.34,2.04 0,0Z" style="fill:rgb(216,146,2);fill-rule:nonzero;"/>
    </g>
</svg>
